<svg xmlns="http://www.w3.org/2000/svg" xmlns:xlink="http://www.w3.org/1999/xlink" width="524" height="332" viewBox="0 0 524 332">
    <defs>
        <linearGradient id="a" x1="99.154%" x2="2.154%" y1="70.04%" y2="31.135%">
            <stop offset="0%" stop-color="#F6F7F8"/>
            <stop offset="100%" stop-color="#E0ECF2"/>
        </linearGradient>
        <path id="b" d="M.174.747h288.451V50H.175z"/>
        <linearGradient id="c" x1="26.417%" x2="118.82%" y1="38.439%" y2="65.139%">
            <stop offset="0%" stop-color="#233F52"/>
            <stop offset="100%" stop-color="#1A2D38"/>
        </linearGradient>
        <linearGradient id="d" x1="76.369%" x2="-.613%" y1="62.932%" y2="29.128%">
            <stop offset="0%" stop-color="#2F56E9"/>
            <stop offset="100%" stop-color="#4D89E9"/>
        </linearGradient>
        <linearGradient id="e" x1="59.67%" x2="42.999%" y1="18.628%" y2="85.34%">
            <stop offset="0%" stop-color="#E49190"/>
            <stop offset="100%" stop-color="#EBC6C6"/>
        </linearGradient>
        <linearGradient id="f" x1="16.528%" x2="94.593%" y1="47.889%" y2="55.562%">
            <stop offset="0%" stop-color="#EBC6C6"/>
            <stop offset="100%" stop-color="#E49190"/>
        </linearGradient>
        <linearGradient id="g" x1="17.189%" x2="91.969%" y1="68.24%" y2="26.668%">
            <stop offset="0%" stop-color="#B1CAF7"/>
            <stop offset="100%" stop-color="#E9F0FD"/>
        </linearGradient>
        <path id="h" d="M.28.538h123.363V39.49H.28z"/>
        <linearGradient id="i" x1="26.417%" x2="118.82%" y1="46.505%" y2="54.577%">
            <stop offset="0%" stop-color="#233F52"/>
            <stop offset="100%" stop-color="#1A2D38"/>
        </linearGradient>
        <path id="k" d="M52.777 16.965c-4.694 6.223-10.23 5.891-14.758 5.56-5.488-.403-9.495-.805-8.717 10.473 2.483 36.013-41.31 11.325-21.106 48.924 20.203 37.599-17.84 21.26-5.284 51.577 12.555 30.318-3.718 66.477 15.173 51.617 0 0 16.634-36.603 33.789-47.928 17.154-11.325-10.277-24.762-4.91-40.144C54.76 74.702 73.543 75.58 59.999 51.57 49.402 32.784 71.144 18.158 71.156 7.91v-.017c-.004-2.842-1.682-5.348-6.19-7.511a2.924 2.924 0 0 0-1.279-.3c-5.65 0-10.91 16.883-10.91 16.883"/>
        <linearGradient id="l" x1="53.078%" x2="45.891%" y1="59.665%" y2="18.842%">
            <stop offset="0%" stop-color="#2F56E9"/>
            <stop offset="100%" stop-color="#4D89E9"/>
        </linearGradient>
        <path id="n" d="M1.338 1.539C.15 2.664-.854 4.869 1.115 8.982c1.798 3.758 4.13 6.137 6.005 8.05 2.521 2.572 4.187 4.271 3.32 7.659-.203.794-.439 1.597-.674 2.403-1.685 5.76-3.593 12.287 6.266 16.717 2.093.94 4 1.688 5.681 2.348 6.883 2.7 11.038 4.33 15.728 14.227.907 1.916 1.709 3.732 2.484 5.488 3.697 8.377 6.496 14.714 14.137 14.714 1.059 0 2.21-.122 3.471-.376 3.164-.64 5.24-2.309 6.166-4.96 2.214-6.328-2.914-16.607-7.076-21.562-.069-.082-7.035-8.593-6.292-20.39.125-1.977.33-3.807.51-5.423.524-4.668.902-8.04-1.104-10.294-1.767-1.985-5.18-2.845-11.41-2.874-10.926-.052-15.246-4.573-18.717-8.208-1.474-1.543-2.867-3-4.559-3.924C11.954.887 8.753.017 6.107.017c-2.005 0-3.691.5-4.77 1.522m39.83 63.787a220.556 220.556 0 0 0-2.5-5.521c-4.92-10.383-9.51-12.184-16.458-14.91-1.667-.654-3.558-1.396-5.62-2.322-8.781-3.945-7.197-9.363-5.52-15.098.24-.82.479-1.639.686-2.448 1.057-4.128-1.027-6.254-3.666-8.946-1.898-1.936-4.049-4.13-5.75-7.685-.892-1.863-1.627-4.394-.068-5.872 2.052-1.945 7.267-1.41 12.13 1.245 1.506.822 2.767 2.142 4.227 3.67 3.648 3.82 8.19 8.573 19.693 8.627 5.728.027 8.936.773 10.402 2.42 1.603 1.8 1.253 4.921.77 9.24-.183 1.63-.39 3.478-.517 5.488-.778 12.355 6.304 20.986 6.606 21.348 4.12 4.904 8.786 14.665 6.836 20.241-.759 2.168-2.493 3.54-5.155 4.078-1.17.237-2.233.35-3.207.35-6.75 0-9.177-5.495-12.889-13.905"/>
        <linearGradient id="o" x1="11.559%" x2="87.782%" y1="58.348%" y2="23.77%">
            <stop offset="0%" stop-color="#B1CAF7"/>
            <stop offset="100%" stop-color="#E9F0FD"/>
        </linearGradient>
        <path id="q" d="M.172 1.493c.115.02 11.583 2.104 13.69 9.378 2.041 7.05 6.324 17.547 19.89 27.299 11.541 8.295 13.264 38.222 13.28 38.523l1.356-.07c-.067-1.256-1.778-30.868-13.835-39.535-13.229-9.508-17.4-19.726-19.386-26.585C12.827 2.422.914.262.407.173l-.235 1.32z"/>
        <linearGradient id="r" x1="25.985%" x2="73.602%" y1="58.348%" y2="23.77%">
            <stop offset="0%" stop-color="#B1CAF7"/>
            <stop offset="100%" stop-color="#E9F0FD"/>
        </linearGradient>
        <path id="t" d="M10.045.58C.172 3.99 12.3 17.404 1.92 39.442-8.46 61.48 33.603 72.316 21.984 83.23c-11.618 10.914-9.703 15.596 2.031 19.61 11.735 4.015 6.79 37.801 18.074 45.1 11.283 7.3 1.805-21.396 12.186-48.226 10.38-26.83-24.372-6.366-9.027-37.112C60.593 31.856 24.036 38.778 20.425 26.5 17.101 15.196 18.342.234 11.892.234c-.556 0-1.17.111-1.847.345"/>
        <linearGradient id="u" x1="41.444%" x2="58.409%" y1="58.348%" y2="23.77%">
            <stop offset="0%" stop-color="#B1CAF7"/>
            <stop offset="100%" stop-color="#E9F0FD"/>
        </linearGradient>
        <path id="w" d="M.324.203L12.687 47h27.631L52.682.203z"/>
        <linearGradient id="x" x1="11.878%" x2="99.718%" y1="70.895%" y2="11.188%">
            <stop offset="0%" stop-color="#B1CAF7"/>
            <stop offset="100%" stop-color="#E9F0FD"/>
        </linearGradient>
        <path id="z" d="M.324.203L12.687 47h12.776c0-41.699 27.22-46.797 27.22-46.797H.322z"/>
    </defs>
    <g fill="none" fill-rule="evenodd">
        <path fill="url(#a)" d="M43.407 331.735l437.035-.147c38.597-.014 58.227-45.62 30.68-71.89-.566-.54-1.144-1.08-1.733-1.618-37.68-34.45-50.335-35.235-50.335-106.615s-53.613-84.94-93.638-72.793C325.391 90.818 283.55 96.035 247.104 36.49 210.658-23.054 94.668-13.74 92.479 94.312c-1.88 92.82-82.084 107.787-92.176 190.56-3.045 24.973 17.225 46.872 43.104 46.863"/>
        <path fill="#C8D9F9" d="M227.264 295c-50.492-10.634-88.967-48.01-111.268-108.082-15.888-42.792-18.044-82.39-18.13-84.054L97 85.737 231.999 38 367 85.737l-.865 17.127c-.087 1.664-2.243 41.262-18.13 84.054-22.3 60.072-60.777 97.448-111.27 108.082L232 296l-4.735-1z"/>
        <path fill="#D8E5FF" d="M338 103.795L231.5 66 125 103.795S132.212 247.006 231.5 268C330.786 247.006 338 103.795 338 103.795"/>
        <path fill="#073A93" d="M232 254.013L280.783 247h42.888L362 254.553 296.061 288z"/>
        <path fill="url(#c)" d="M226 250.817s-86.556-47.16-96.77-31.707c-14.757 22.325 7.796 33.571 88.17 54.89l8.6-23.183z" transform="translate(95 38)"/>
        <path fill="#1858B5" d="M345.226 313.689c2.143-5.216-.315-11.193-5.489-13.35L319.757 292 312 310.884l19.98 8.336c5.173 2.16 11.105-.319 13.246-5.531"/>
        <path fill="#489BFF" d="M318.123 295l14.732 6.107c3.413 1.415 5.051 5.33 3.636 8.75-1.414 3.418-5.345 5.048-8.759 3.633L313 307.385 318.123 295z"/>
        <path fill="#063272" d="M313.32 306l20.143 8.81c4.67 2.042 9.934.138 12.537-4.234-.126.589-.273 1.177-.499 1.755-2.16 5.51-8.139 8.125-13.357 5.845L312 309.365l1.32-3.365z"/>
        <path fill="#E6E6E6" d="M320.062 307.971l3.384-7.513c.168-.378.644-.557 1.056-.402.41.157.606.594.437.971l-3.384 7.514c-.17.377-.644.559-1.057.404-.41-.157-.607-.597-.436-.974M324.06 308.972l3.384-7.513c.171-.38.647-.56 1.06-.402.41.157.605.592.434.97l-3.384 7.515c-.169.377-.644.558-1.055.401-.41-.155-.607-.594-.439-.971M330.061 310.971l3.384-7.513c.17-.378.644-.557 1.057-.402.41.157.607.594.436.971l-3.383 7.514c-.17.377-.644.559-1.055.404-.412-.157-.61-.597-.439-.974"/>
        <path fill="url(#d)" d="M257.846 186.12c-1.334-4.635-7.979-12.486-13.883-28.581C237.822 140.8 211.657 139 211.657 139l-10.156 5.495-10.16-5.495s-26.162 1.801-32.304 18.539c-5.906 16.095-12.547 23.946-13.883 28.58-1.335 4.636 5.874 34.632 26.564 38.881h59.562c20.693-4.249 27.9-34.245 26.566-38.88" transform="translate(95 38)"/>
        <path fill="url(#e)" d="M213 140v8.251s-1.934 9.215-11.04 10.749c-9.493-2.09-10.96-10.749-10.96-10.749V140h22z" transform="translate(95 38)"/>
        <path fill="#1E3442" d="M277.62 162.735s-2.99-19.257 4.158-21.597c1.946-.639.522-6.997 11.403-7.075 14.851-.107 26.555-2.155 24.606 28.937l-40.166-.265z"/>
        <path fill="#FFB5B1" d="M286 165a5 5 0 1 0-10 0 5 5 0 0 0 10 0M318 165a5 5 0 1 0-10.002.002A5 5 0 0 0 318 165"/>
        <path fill="url(#f)" d="M219 117.979l-.029-.01v-.004h-.01c-.21-.068-4.346-1.46-5.137-6.965l-2.269.645a34.268 34.268 0 0 1-19.195-.184l-1.808-.461c-.791 5.496-5.13 6.891-5.366 6.965h-.044l-.142 8.502c0 4.948 2.062 10.961 5.366 15.588C193.05 145.82 197.4 148 201.989 148c4.587 0 8.937-2.18 11.624-5.945 3.302-4.627 5.366-10.64 5.366-15.588l-.008-8.465.029-.023z" transform="translate(95 38)"/>
        <path fill="url(#g)" d="M229.467 187h-54.932a5.534 5.534 0 0 0-5.535 5.535v32.93a5.534 5.534 0 0 0 5.535 5.535h54.932a5.534 5.534 0 0 0 5.533-5.535v-32.93a5.534 5.534 0 0 0-5.533-5.535" transform="translate(95 38)"/>
        <path fill="#D7E4FC" d="M304 245.999a7 7 0 1 0-14 .003 7 7 0 0 0 14-.003"/>
        <path fill="url(#c)" d="M175 250.817s86.555-47.16 96.77-31.707c14.756 22.325-7.797 33.571-88.17 54.89l-8.6-23.183z" transform="translate(95 38)"/>
        <path fill="#1858B5" d="M246.774 313.689c-2.143-5.216.315-11.193 5.489-13.35l19.98-8.339L280 310.884l-19.98 8.336c-5.173 2.16-11.105-.319-13.246-5.531"/>
        <path fill="#489BFF" d="M278 307.385l-14.732 6.105c-3.414 1.415-7.347-.217-8.759-3.633-1.415-3.419.223-7.337 3.636-8.75L272.877 295 278 307.385z"/>
        <path fill="#063272" d="M278.68 306l-20.143 8.81c-4.67 2.042-9.934.138-12.537-4.234.126.589.273 1.177.499 1.755 2.16 5.51 8.139 8.125 13.357 5.845L280 309.365 278.68 306z"/>
        <path fill="#E6E6E6" d="M270.939 307.971l-3.384-7.513c-.169-.378-.644-.557-1.057-.402-.41.157-.607.594-.437.971l3.384 7.514c.17.377.646.559 1.057.404.41-.157.607-.597.437-.974M266.939 308.972l-3.384-7.513c-.17-.38-.646-.56-1.058-.402-.41.157-.606.592-.435.97l3.383 7.515c.169.377.644.558 1.055.401.41-.155.61-.594.439-.971M261.939 310.971l-3.384-7.513c-.17-.378-.644-.557-1.057-.402-.41.157-.607.594-.436.971l3.383 7.514c.17.377.644.559 1.055.404.412-.157.61-.597.439-.974"/>
        <path fill="#D2EBFF" d="M160.574 199.956a.273.273 0 0 1-.106-.128 105.86 105.86 0 0 1-5.467-23.553c-.014-.136.093-.259.243-.274.15-.014.284.086.3.224.9 7.957 2.734 15.845 5.442 23.447.047.13-.03.273-.174.316a.295.295 0 0 1-.238-.032M157.11 210.953a.278.278 0 0 1-.006-.439c6.99-5.392 14.218-10.97 21.967-15.429 1.423-.817 2.95-1.652 4.614-2.077.136-.036.274.054.308.197.032.144-.05.29-.187.323-1.608.411-3.1 1.226-4.491 2.028-7.72 4.442-14.934 10.008-21.911 15.393a.247.247 0 0 1-.294.004M144.612 246.955c-6.582-4.666-14.128-17.238-18.586-26.587a.256.256 0 0 1 .112-.34.242.242 0 0 1 .332.115c4.435 9.293 11.92 21.781 18.422 26.39.113.08.142.24.065.356a.244.244 0 0 1-.345.066M136.738 243c-8.434 0-22.298-5.68-31.604-10.543-.126-.067-.17-.216-.101-.332a.273.273 0 0 1 .358-.094c9.251 4.834 23.012 10.48 31.347 10.48.145 0 .262.11.262.245 0 .134-.117.244-.262.244"/>
        <g transform="translate(268 84)">
            <mask id="j" fill="#fff">
                <use xlink:href="#h"/>
            </mask>
            <path fill="url(#i)" d="M117.884.538H6.039C2.871.538.28 3.188.28 6.427v27.175c0 3.239 2.59 5.89 5.76 5.89h111.844c3.166 0 5.76-2.651 5.76-5.89V6.427c0-3.24-2.594-5.89-5.76-5.89" mask="url(#j)"/>
        </g>
        <path fill="#FFF" d="M293.506 117h-16.01c-1.377 0-2.496-1.05-2.496-2.346v-10.308c0-1.295 1.119-2.346 2.496-2.346h16.01c1.375 0 2.494 1.05 2.494 2.346v10.308c0 1.295-1.119 2.346-2.494 2.346M293 100h-1.908v-3.015c0-2.802-2.282-5.082-5.09-5.082s-5.093 2.28-5.093 5.082V100H279v-3.015c0-3.851 3.14-6.985 7.002-6.985 3.857 0 6.998 3.134 6.998 6.985V100z"/>
        <path fill="#223D4F" d="M288 107.087c0-1.153-1.12-2.087-2.499-2.087-1.382 0-2.501.934-2.501 2.087 0 .776.514 1.444 1.267 1.804l-.863 4.109h4.192l-.861-4.11c.751-.359 1.265-1.027 1.265-1.803"/>
        <path fill="#FFF" d="M322 105.499c0 1.933-1.792 3.501-4.001 3.501-2.21 0-3.999-1.568-3.999-3.501 0-1.933 1.79-3.499 3.999-3.499 2.21 0 4.001 1.566 4.001 3.499M337 105.499c0 1.933-1.792 3.501-4.001 3.501-2.21 0-3.999-1.568-3.999-3.501 0-1.933 1.79-3.499 3.999-3.499 2.21 0 4.001 1.566 4.001 3.499M350 105.499c0 1.933-1.79 3.501-3.999 3.501-2.21 0-4.001-1.568-4.001-3.501 0-1.933 1.792-3.499 4.001-3.499 2.21 0 3.999 1.566 3.999 3.499M364 105.499a3.5 3.5 0 1 1-7 .002 3.5 3.5 0 0 1 7-.002M376 105.499a3.5 3.5 0 1 1-7 .002 3.5 3.5 0 0 1 7-.002"/>
        <g>
            <g transform="translate(78 111)">
                <mask id="m" fill="#fff">
                    <use xlink:href="#k"/>
                </mask>
                <path fill="url(#l)" d="M52.777 16.965c-4.694 6.223-10.23 5.891-14.758 5.56-5.488-.403-9.495-.805-8.717 10.473 2.483 36.013-41.31 11.325-21.106 48.924 20.203 37.599-17.84 21.26-5.284 51.577 12.555 30.318-3.718 66.477 15.173 51.617 0 0 16.634-36.603 33.789-47.928 17.154-11.325-10.277-24.762-4.91-40.144C54.76 74.702 73.543 75.58 59.999 51.57 49.402 32.784 71.144 18.158 71.156 7.91v-.017c-.004-2.842-1.682-5.348-6.19-7.511a2.924 2.924 0 0 0-1.279-.3c-5.65 0-10.91 16.883-10.91 16.883" mask="url(#m)"/>
            </g>
            <path fill="#FFF" d="M90.796 281c8.365-5.732 18.155-45.677 18.739-69.47.3-12.187 3.996-17.264 7.258-21.744 3.119-4.282 5.812-7.98 4.243-16.472-2.998-16.227 4.884-23.232 4.964-23.301l-.912-1.013c-.351.3-8.56 7.524-5.414 24.554 1.466 7.933-.95 11.251-4.009 15.452-3.21 4.408-7.204 9.893-7.513 22.492-.627 25.534-10.636 63.25-18.152 68.4l.796 1.102z"/>
            <g transform="translate(33 204)">
                <mask id="p" fill="#fff">
                    <use xlink:href="#n"/>
                </mask>
                <path fill="url(#o)" d="M1.338 1.539C.15 2.664-.854 4.869 1.115 8.982c1.798 3.758 4.13 6.137 6.005 8.05 2.521 2.572 4.187 4.271 3.32 7.659-.203.794-.439 1.597-.674 2.403-1.685 5.76-3.593 12.287 6.266 16.717 2.093.94 4 1.688 5.681 2.348 6.883 2.7 11.038 4.33 15.728 14.227.907 1.916 1.709 3.732 2.484 5.488 3.697 8.377 6.496 14.714 14.137 14.714 1.059 0 2.21-.122 3.471-.376 3.164-.64 5.24-2.309 6.166-4.96 2.214-6.328-2.914-16.607-7.076-21.562-.069-.082-7.035-8.593-6.292-20.39.125-1.977.33-3.807.51-5.423.524-4.668.902-8.04-1.104-10.294-1.767-1.985-5.18-2.845-11.41-2.874-10.926-.052-15.246-4.573-18.717-8.208-1.474-1.543-2.867-3-4.559-3.924C11.954.887 8.753.017 6.107.017c-2.005 0-3.691.5-4.77 1.522m39.83 63.787a220.556 220.556 0 0 0-2.5-5.521c-4.92-10.383-9.51-12.184-16.458-14.91-1.667-.654-3.558-1.396-5.62-2.322-8.781-3.945-7.197-9.363-5.52-15.098.24-.82.479-1.639.686-2.448 1.057-4.128-1.027-6.254-3.666-8.946-1.898-1.936-4.049-4.13-5.75-7.685-.892-1.863-1.627-4.394-.068-5.872 2.052-1.945 7.267-1.41 12.13 1.245 1.506.822 2.767 2.142 4.227 3.67 3.648 3.82 8.19 8.573 19.693 8.627 5.728.027 8.936.773 10.402 2.42 1.603 1.8 1.253 4.921.77 9.24-.183 1.63-.39 3.478-.517 5.488-.778 12.355 6.304 20.986 6.606 21.348 4.12 4.904 8.786 14.665 6.836 20.241-.759 2.168-2.493 3.54-5.155 4.078-1.17.237-2.233.35-3.207.35-6.75 0-9.177-5.495-12.889-13.905" mask="url(#p)"/>
            </g>
            <g transform="translate(43 215)">
                <mask id="s" fill="#fff">
                    <use xlink:href="#q"/>
                </mask>
                <path fill="url(#r)" d="M.172 1.493c.115.02 11.583 2.104 13.69 9.378 2.041 7.05 6.324 17.547 19.89 27.299 11.541 8.295 13.264 38.222 13.28 38.523l1.356-.07c-.067-1.256-1.778-30.868-13.835-39.535-13.229-9.508-17.4-19.726-19.386-26.585C12.827 2.422.914.262.407.173l-.235 1.32z" mask="url(#s)"/>
            </g>
            <g transform="translate(54 141)">
                <mask id="v" fill="#fff">
                    <use xlink:href="#t"/>
                </mask>
                <path fill="url(#u)" d="M10.045.58C.172 3.99 12.3 17.404 1.92 39.442-8.46 61.48 33.603 72.316 21.984 83.23c-11.618 10.914-9.703 15.596 2.031 19.61 11.735 4.015 6.79 37.801 18.074 45.1 11.283 7.3 1.805-21.396 12.186-48.226 10.38-26.83-24.372-6.366-9.027-37.112C60.593 31.856 24.036 38.778 20.425 26.5 17.101 15.196 18.342.234 11.892.234c-.556 0-1.17.111-1.847.345" mask="url(#v)"/>
            </g>
            <path fill="#FFF" d="M89.658 286c1.081-4.568 10.318-44.768 1.7-49.627-7.596-4.282-7.41-20.94-6.224-36.67C86.182 185.777 68.22 179.27 67.456 179L67 180.28c.178.062 17.745 6.433 16.775 19.321-1.218 16.155-1.348 33.297 6.911 37.953 6.545 3.69.52 35.997-2.355 48.134l1.327.312z"/>
            <g transform="translate(71 272)">
                <mask id="y" fill="#fff">
                    <use xlink:href="#w"/>
                </mask>
                <path fill="url(#x)" d="M.324.203L12.687 47h27.631L52.682.203z" mask="url(#y)"/>
            </g>
            <g transform="translate(71 272)">
                <mask id="A" fill="#fff">
                    <use xlink:href="#z"/>
                </mask>
                <path fill="#050505" d="M.324.203L12.687 47h12.776c0-41.699 27.22-46.797 27.22-46.797H.322z" mask="url(#A)" opacity=".1"/>
            </g>
        </g>
    </g>
</svg>
